<?xml version="1.0" encoding="utf-8"?>
<!-- Generator: Adobe Illustrator 27.0.0, SVG Export Plug-In . SVG Version: 6.00 Build 0)  -->
<svg version="1.1" id="Layer_1" xmlns="http://www.w3.org/2000/svg" xmlns:xlink="http://www.w3.org/1999/xlink" x="0px" y="0px"
	 viewBox="0 0 1000 1000" style="enable-background:new 0 0 1000 1000;" xml:space="preserve">
<style type="text/css">
	.st0{clip-path:url(#SVGID_00000115490560326784584630000011215757708700305567_);}
	
		.st1{clip-path:url(#SVGID_00000142886929712407693230000017234688195271571365_);fill:url(#SVGID_00000168086247770070709510000002482059752508282005_);}
	.st2{clip-path:url(#SVGID_00000141452339795153050760000011497927894839147404_);fill:#004433;}
</style>
<g>
	<g>
		<defs>
			<rect id="SVGID_1_" x="68.8" y="68.8" width="862.5" height="862.5"/>
		</defs>
		<clipPath id="SVGID_00000088132741039525381360000004547385228850111152_">
			<use xlink:href="#SVGID_1_"  style="overflow:visible;"/>
		</clipPath>
		<g style="clip-path:url(#SVGID_00000088132741039525381360000004547385228850111152_);">
			<defs>
				<path id="SVGID_00000052067587349303906530000002653915527646342041_" d="M282.9,354.1c12.1,17.3,21.6,35.5,27.7,55.3
					c13-29.4,36.3-53.6,64.9-67.4c29.4,13.8,51.9,38,64.9,67.4c6-19.9,15.6-38.9,27.7-55.3c-22.5-31.2-55.3-54.5-93.4-67.5
					C338.2,299.6,306.2,323,282.9,354.1"/>
			</defs>
			<clipPath id="SVGID_00000164480348835632946160000013859315591349680041_">
				<use xlink:href="#SVGID_00000052067587349303906530000002653915527646342041_"  style="overflow:visible;"/>
			</clipPath>
			
				<linearGradient id="SVGID_00000005966802339650837430000003997787627864123016_" gradientUnits="userSpaceOnUse" x1="17.8725" y1="623.2734" x2="18.6711" y2="623.2734" gradientTransform="matrix(0 -153.7893 153.7893 0 -95477.3672 3158.0474)">
				<stop  offset="0" style="stop-color:#82C341"/>
				<stop  offset="7.812500e-03" style="stop-color:#82C341"/>
				<stop  offset="1.171880e-02" style="stop-color:#81C241"/>
				<stop  offset="1.562500e-02" style="stop-color:#80C241"/>
				<stop  offset="1.953130e-02" style="stop-color:#80C241"/>
				<stop  offset="2.343750e-02" style="stop-color:#7FC141"/>
				<stop  offset="2.734380e-02" style="stop-color:#7FC141"/>
				<stop  offset="3.125000e-02" style="stop-color:#7EC142"/>
				<stop  offset="3.515630e-02" style="stop-color:#7EC042"/>
				<stop  offset="3.906250e-02" style="stop-color:#7DC042"/>
				<stop  offset="4.296880e-02" style="stop-color:#7DC042"/>
				<stop  offset="4.687500e-02" style="stop-color:#7CBF42"/>
				<stop  offset="5.078130e-02" style="stop-color:#7CBF42"/>
				<stop  offset="5.468750e-02" style="stop-color:#7BBF42"/>
				<stop  offset="5.859380e-02" style="stop-color:#7BBE42"/>
				<stop  offset="6.250000e-02" style="stop-color:#7ABE42"/>
				<stop  offset="6.640630e-02" style="stop-color:#7ABE42"/>
				<stop  offset="7.031250e-02" style="stop-color:#79BD42"/>
				<stop  offset="7.421880e-02" style="stop-color:#79BD42"/>
				<stop  offset="7.812500e-02" style="stop-color:#78BD42"/>
				<stop  offset="8.203129e-02" style="stop-color:#78BC43"/>
				<stop  offset="8.593750e-02" style="stop-color:#77BC43"/>
				<stop  offset="8.984379e-02" style="stop-color:#77BC43"/>
				<stop  offset="9.375000e-02" style="stop-color:#76BB43"/>
				<stop  offset="9.765629e-02" style="stop-color:#75BB43"/>
				<stop  offset="0.1016" style="stop-color:#75BB43"/>
				<stop  offset="0.1055" style="stop-color:#74BA43"/>
				<stop  offset="0.1094" style="stop-color:#74BA43"/>
				<stop  offset="0.1133" style="stop-color:#73BA43"/>
				<stop  offset="0.1172" style="stop-color:#73B943"/>
				<stop  offset="0.1211" style="stop-color:#72B943"/>
				<stop  offset="0.125" style="stop-color:#72B943"/>
				<stop  offset="0.1289" style="stop-color:#71B843"/>
				<stop  offset="0.1328" style="stop-color:#71B843"/>
				<stop  offset="0.1367" style="stop-color:#70B844"/>
				<stop  offset="0.1406" style="stop-color:#70B744"/>
				<stop  offset="0.1445" style="stop-color:#6FB744"/>
				<stop  offset="0.1484" style="stop-color:#6FB744"/>
				<stop  offset="0.1523" style="stop-color:#6EB644"/>
				<stop  offset="0.1562" style="stop-color:#6EB644"/>
				<stop  offset="0.1602" style="stop-color:#6DB644"/>
				<stop  offset="0.1641" style="stop-color:#6DB544"/>
				<stop  offset="0.168" style="stop-color:#6CB544"/>
				<stop  offset="0.1719" style="stop-color:#6CB544"/>
				<stop  offset="0.1758" style="stop-color:#6BB544"/>
				<stop  offset="0.1797" style="stop-color:#6BB444"/>
				<stop  offset="0.1836" style="stop-color:#6AB444"/>
				<stop  offset="0.1875" style="stop-color:#6AB445"/>
				<stop  offset="0.1914" style="stop-color:#69B345"/>
				<stop  offset="0.1953" style="stop-color:#69B345"/>
				<stop  offset="0.1992" style="stop-color:#68B345"/>
				<stop  offset="0.2031" style="stop-color:#68B245"/>
				<stop  offset="0.207" style="stop-color:#67B245"/>
				<stop  offset="0.2109" style="stop-color:#67B245"/>
				<stop  offset="0.2148" style="stop-color:#66B145"/>
				<stop  offset="0.2188" style="stop-color:#66B145"/>
				<stop  offset="0.2227" style="stop-color:#65B145"/>
				<stop  offset="0.2266" style="stop-color:#65B045"/>
				<stop  offset="0.2305" style="stop-color:#64B045"/>
				<stop  offset="0.2344" style="stop-color:#64B045"/>
				<stop  offset="0.2383" style="stop-color:#63AF46"/>
				<stop  offset="0.2422" style="stop-color:#63AF46"/>
				<stop  offset="0.2461" style="stop-color:#62AF46"/>
				<stop  offset="0.25" style="stop-color:#62AE46"/>
				<stop  offset="0.2539" style="stop-color:#61AE46"/>
				<stop  offset="0.2578" style="stop-color:#61AE46"/>
				<stop  offset="0.2617" style="stop-color:#60AD46"/>
				<stop  offset="0.2656" style="stop-color:#60AD46"/>
				<stop  offset="0.2695" style="stop-color:#5FAD46"/>
				<stop  offset="0.2734" style="stop-color:#5FAC46"/>
				<stop  offset="0.2773" style="stop-color:#5EAC46"/>
				<stop  offset="0.2812" style="stop-color:#5EAC46"/>
				<stop  offset="0.2852" style="stop-color:#5DAB46"/>
				<stop  offset="0.2891" style="stop-color:#5DAB46"/>
				<stop  offset="0.293" style="stop-color:#5CAB47"/>
				<stop  offset="0.2969" style="stop-color:#5CAA47"/>
				<stop  offset="0.3008" style="stop-color:#5BAA47"/>
				<stop  offset="0.3047" style="stop-color:#5BAA47"/>
				<stop  offset="0.3086" style="stop-color:#5AA947"/>
				<stop  offset="0.3125" style="stop-color:#5AA947"/>
				<stop  offset="0.3164" style="stop-color:#59A947"/>
				<stop  offset="0.3203" style="stop-color:#58A947"/>
				<stop  offset="0.3242" style="stop-color:#58A847"/>
				<stop  offset="0.3281" style="stop-color:#57A847"/>
				<stop  offset="0.332" style="stop-color:#57A847"/>
				<stop  offset="0.3359" style="stop-color:#56A747"/>
				<stop  offset="0.3398" style="stop-color:#56A747"/>
				<stop  offset="0.3438" style="stop-color:#55A748"/>
				<stop  offset="0.3477" style="stop-color:#55A648"/>
				<stop  offset="0.3516" style="stop-color:#54A648"/>
				<stop  offset="0.3555" style="stop-color:#54A648"/>
				<stop  offset="0.3594" style="stop-color:#53A548"/>
				<stop  offset="0.3633" style="stop-color:#53A548"/>
				<stop  offset="0.3672" style="stop-color:#52A548"/>
				<stop  offset="0.3711" style="stop-color:#52A448"/>
				<stop  offset="0.375" style="stop-color:#51A448"/>
				<stop  offset="0.3789" style="stop-color:#51A448"/>
				<stop  offset="0.3828" style="stop-color:#50A348"/>
				<stop  offset="0.3867" style="stop-color:#50A348"/>
				<stop  offset="0.3906" style="stop-color:#4FA348"/>
				<stop  offset="0.3945" style="stop-color:#4FA248"/>
				<stop  offset="0.3984" style="stop-color:#4EA249"/>
				<stop  offset="0.4023" style="stop-color:#4EA249"/>
				<stop  offset="0.4062" style="stop-color:#4DA149"/>
				<stop  offset="0.4102" style="stop-color:#4DA149"/>
				<stop  offset="0.4141" style="stop-color:#4CA149"/>
				<stop  offset="0.418" style="stop-color:#4CA049"/>
				<stop  offset="0.4219" style="stop-color:#4BA049"/>
				<stop  offset="0.4258" style="stop-color:#4BA049"/>
				<stop  offset="0.4297" style="stop-color:#4A9F49"/>
				<stop  offset="0.4336" style="stop-color:#4A9F49"/>
				<stop  offset="0.4375" style="stop-color:#499F49"/>
				<stop  offset="0.4414" style="stop-color:#499E49"/>
				<stop  offset="0.4453" style="stop-color:#489E49"/>
				<stop  offset="0.4492" style="stop-color:#489E4A"/>
				<stop  offset="0.4531" style="stop-color:#479D4A"/>
				<stop  offset="0.457" style="stop-color:#479D4A"/>
				<stop  offset="0.4609" style="stop-color:#469D4A"/>
				<stop  offset="0.4648" style="stop-color:#469C4A"/>
				<stop  offset="0.4688" style="stop-color:#459C4A"/>
				<stop  offset="0.4727" style="stop-color:#459C4A"/>
				<stop  offset="0.4766" style="stop-color:#449C4A"/>
				<stop  offset="0.4805" style="stop-color:#449B4A"/>
				<stop  offset="0.4844" style="stop-color:#439B4A"/>
				<stop  offset="0.4883" style="stop-color:#439B4A"/>
				<stop  offset="0.4922" style="stop-color:#429A4A"/>
				<stop  offset="0.4961" style="stop-color:#429A4A"/>
				<stop  offset="0.5" style="stop-color:#419A4A"/>
				<stop  offset="0.5039" style="stop-color:#41994B"/>
				<stop  offset="0.5078" style="stop-color:#40994B"/>
				<stop  offset="0.5117" style="stop-color:#40994B"/>
				<stop  offset="0.5156" style="stop-color:#3F984B"/>
				<stop  offset="0.5195" style="stop-color:#3F984B"/>
				<stop  offset="0.5234" style="stop-color:#3E984B"/>
				<stop  offset="0.5273" style="stop-color:#3E974B"/>
				<stop  offset="0.5312" style="stop-color:#3D974B"/>
				<stop  offset="0.5352" style="stop-color:#3D974B"/>
				<stop  offset="0.5391" style="stop-color:#3C964B"/>
				<stop  offset="0.543" style="stop-color:#3C964B"/>
				<stop  offset="0.5469" style="stop-color:#3B964B"/>
				<stop  offset="0.5508" style="stop-color:#3A954B"/>
				<stop  offset="0.5547" style="stop-color:#3A954C"/>
				<stop  offset="0.5586" style="stop-color:#39954C"/>
				<stop  offset="0.5625" style="stop-color:#39944C"/>
				<stop  offset="0.5664" style="stop-color:#38944C"/>
				<stop  offset="0.5703" style="stop-color:#38944C"/>
				<stop  offset="0.5742" style="stop-color:#37934C"/>
				<stop  offset="0.5781" style="stop-color:#37934C"/>
				<stop  offset="0.582" style="stop-color:#36934C"/>
				<stop  offset="0.5859" style="stop-color:#36924C"/>
				<stop  offset="0.5898" style="stop-color:#35924C"/>
				<stop  offset="0.5938" style="stop-color:#35924C"/>
				<stop  offset="0.5977" style="stop-color:#34914C"/>
				<stop  offset="0.6016" style="stop-color:#34914C"/>
				<stop  offset="0.6055" style="stop-color:#33914C"/>
				<stop  offset="0.6094" style="stop-color:#33904D"/>
				<stop  offset="0.6133" style="stop-color:#32904D"/>
				<stop  offset="0.6172" style="stop-color:#32904D"/>
				<stop  offset="0.6211" style="stop-color:#318F4D"/>
				<stop  offset="0.625" style="stop-color:#318F4D"/>
				<stop  offset="0.6289" style="stop-color:#308F4D"/>
				<stop  offset="0.6328" style="stop-color:#308F4D"/>
				<stop  offset="0.6367" style="stop-color:#2F8E4D"/>
				<stop  offset="0.6406" style="stop-color:#2F8E4D"/>
				<stop  offset="0.6445" style="stop-color:#2E8E4D"/>
				<stop  offset="0.6484" style="stop-color:#2E8D4D"/>
				<stop  offset="0.6523" style="stop-color:#2D8D4D"/>
				<stop  offset="0.6562" style="stop-color:#2D8D4D"/>
				<stop  offset="0.6602" style="stop-color:#2C8C4E"/>
				<stop  offset="0.6641" style="stop-color:#2C8C4E"/>
				<stop  offset="0.668" style="stop-color:#2B8C4E"/>
				<stop  offset="0.6719" style="stop-color:#2B8B4E"/>
				<stop  offset="0.6758" style="stop-color:#2A8B4E"/>
				<stop  offset="0.6797" style="stop-color:#2A8B4E"/>
				<stop  offset="0.6836" style="stop-color:#298A4E"/>
				<stop  offset="0.6875" style="stop-color:#298A4E"/>
				<stop  offset="0.6914" style="stop-color:#288A4E"/>
				<stop  offset="0.6953" style="stop-color:#28894E"/>
				<stop  offset="0.6992" style="stop-color:#27894E"/>
				<stop  offset="0.7031" style="stop-color:#27894E"/>
				<stop  offset="0.707" style="stop-color:#26884E"/>
				<stop  offset="0.7109" style="stop-color:#26884E"/>
				<stop  offset="0.7148" style="stop-color:#25884F"/>
				<stop  offset="0.7188" style="stop-color:#25874F"/>
				<stop  offset="0.7227" style="stop-color:#24874F"/>
				<stop  offset="0.7266" style="stop-color:#24874F"/>
				<stop  offset="0.7305" style="stop-color:#23864F"/>
				<stop  offset="0.7344" style="stop-color:#23864F"/>
				<stop  offset="0.7383" style="stop-color:#22864F"/>
				<stop  offset="0.7422" style="stop-color:#22854F"/>
				<stop  offset="0.7461" style="stop-color:#21854F"/>
				<stop  offset="0.75" style="stop-color:#21854F"/>
				<stop  offset="0.7539" style="stop-color:#20844F"/>
				<stop  offset="0.7578" style="stop-color:#20844F"/>
				<stop  offset="0.7617" style="stop-color:#1F844F"/>
				<stop  offset="0.7656" style="stop-color:#1F8350"/>
				<stop  offset="0.7695" style="stop-color:#1E8350"/>
				<stop  offset="0.7734" style="stop-color:#1D8350"/>
				<stop  offset="0.7773" style="stop-color:#1D8250"/>
				<stop  offset="0.7812" style="stop-color:#1C8250"/>
				<stop  offset="0.7852" style="stop-color:#1C8250"/>
				<stop  offset="0.7891" style="stop-color:#1B8250"/>
				<stop  offset="0.793" style="stop-color:#1B8150"/>
				<stop  offset="0.7969" style="stop-color:#1A8150"/>
				<stop  offset="0.8008" style="stop-color:#1A8150"/>
				<stop  offset="0.8047" style="stop-color:#198050"/>
				<stop  offset="0.8086" style="stop-color:#198050"/>
				<stop  offset="0.8125" style="stop-color:#188050"/>
				<stop  offset="0.8164" style="stop-color:#187F51"/>
				<stop  offset="0.8203" style="stop-color:#177F51"/>
				<stop  offset="0.8242" style="stop-color:#177F51"/>
				<stop  offset="0.8281" style="stop-color:#167E51"/>
				<stop  offset="0.832" style="stop-color:#167E51"/>
				<stop  offset="0.8359" style="stop-color:#157E51"/>
				<stop  offset="0.8398" style="stop-color:#157D51"/>
				<stop  offset="0.8438" style="stop-color:#147D51"/>
				<stop  offset="0.8477" style="stop-color:#147D51"/>
				<stop  offset="0.8516" style="stop-color:#137C51"/>
				<stop  offset="0.8555" style="stop-color:#137C51"/>
				<stop  offset="0.8594" style="stop-color:#127C51"/>
				<stop  offset="0.8633" style="stop-color:#127B51"/>
				<stop  offset="0.8672" style="stop-color:#117B51"/>
				<stop  offset="0.8711" style="stop-color:#117B52"/>
				<stop  offset="0.875" style="stop-color:#107A52"/>
				<stop  offset="0.8789" style="stop-color:#107A52"/>
				<stop  offset="0.8828" style="stop-color:#0F7A52"/>
				<stop  offset="0.8867" style="stop-color:#0F7952"/>
				<stop  offset="0.8906" style="stop-color:#0E7952"/>
				<stop  offset="0.8945" style="stop-color:#0E7952"/>
				<stop  offset="0.8984" style="stop-color:#0D7852"/>
				<stop  offset="0.9023" style="stop-color:#0D7852"/>
				<stop  offset="0.9062" style="stop-color:#0C7852"/>
				<stop  offset="0.9102" style="stop-color:#0C7752"/>
				<stop  offset="0.9141" style="stop-color:#0B7752"/>
				<stop  offset="0.918" style="stop-color:#0B7752"/>
				<stop  offset="0.9219" style="stop-color:#0A7653"/>
				<stop  offset="0.9258" style="stop-color:#0A7653"/>
				<stop  offset="0.9297" style="stop-color:#097653"/>
				<stop  offset="0.9336" style="stop-color:#097653"/>
				<stop  offset="0.9375" style="stop-color:#087553"/>
				<stop  offset="0.9414" style="stop-color:#087553"/>
				<stop  offset="0.9453" style="stop-color:#077553"/>
				<stop  offset="0.9492" style="stop-color:#077453"/>
				<stop  offset="0.9531" style="stop-color:#067453"/>
				<stop  offset="0.957" style="stop-color:#067453"/>
				<stop  offset="0.9609" style="stop-color:#057353"/>
				<stop  offset="0.9648" style="stop-color:#057353"/>
				<stop  offset="0.9688" style="stop-color:#047353"/>
				<stop  offset="0.9727" style="stop-color:#047253"/>
				<stop  offset="0.9766" style="stop-color:#037254"/>
				<stop  offset="0.9805" style="stop-color:#037254"/>
				<stop  offset="0.9844" style="stop-color:#027154"/>
				<stop  offset="0.9883" style="stop-color:#027154"/>
				<stop  offset="0.9922" style="stop-color:#017154"/>
				<stop  offset="0.9961" style="stop-color:#007054"/>
				<stop  offset="1" style="stop-color:#007054"/>
			</linearGradient>
			
				<rect x="282.9" y="286.6" style="clip-path:url(#SVGID_00000164480348835632946160000013859315591349680041_);fill:url(#SVGID_00000005966802339650837430000003997787627864123016_);" width="185.1" height="122.8"/>
		</g>
		<g style="clip-path:url(#SVGID_00000088132741039525381360000004547385228850111152_);">
			<defs>
				<rect id="SVGID_00000103974026491274981360000001799722941189376656_" x="68.8" y="68.8" width="862.5" height="862.5"/>
			</defs>
			<clipPath id="SVGID_00000031922784784237371630000010641989801077963656_">
				<use xlink:href="#SVGID_00000103974026491274981360000001799722941189376656_"  style="overflow:visible;"/>
			</clipPath>
			<path style="clip-path:url(#SVGID_00000031922784784237371630000010641989801077963656_);fill:#004433;" d="M173,579
				c1.7-12.1,1.7-24.2,0-35.5c20.7,19.1,68.3,28.5,109,28.5c32.9,0,46.7-6.9,46.7-21.6c0-19-20.8-20.7-70.1-25.1
				c-54.5-4.3-87.3-13-87.3-45.8c0-32.9,29.4-47.6,89.9-47.6c33.7,0,66.6,4.3,98.6,13c-1.7,11.3-1.7,22.5,0,33.7
				c-32-13-65.7-20.7-100.3-20.7c-34.6,0-48.4,6.9-48.4,20.7c0,17.3,18.2,21.6,63.1,25.1c57.1,4.3,94.3,12.1,94.3,46.7
				c0,32-30.3,46.7-89.9,46.7C242.2,597.2,206.8,591.1,173,579"/>
			<path style="clip-path:url(#SVGID_00000031922784784237371630000010641989801077963656_);fill:#004433;" d="M436.9,464.8
				c-0.9,43.2,0,87.4,1.7,130.6h-38.9c1.7-53.7,1.7-107.3,0-160c18.2,1.8,36.3,1.8,54.5,0c34.6,44.1,70,88.2,107.2,131.5
				c0.9-44.1,0-88.2-1.7-131.5c13,1.8,26.8,1.8,39.8,0c-1.8,53.7-1.8,107.3,0.8,160h-53.6C511.2,550.4,474.9,507.2,436.9,464.8"/>
			<path style="clip-path:url(#SVGID_00000031922784784237371630000010641989801077963656_);fill:#004433;" d="M677.3,570.3
				c18.1,0.9,31.1,0.9,58.8,0.9c39.8,0,50.2-11.3,50.2-24.2s-10.4-20.8-48.4-20.8h-61.4C676.4,540.9,676.4,556.5,677.3,570.3
				 M737.9,505.5c26.8,0,40.6-7.8,40.6-23.3c0-15.6-14.7-22.5-40.6-22.5h-61.4c0,13.9-0.9,29.4,0,45.8
				C695.5,504.6,716.2,505.5,737.9,505.5 M637.5,434.6c30.3,0,57.9-0.9,100.3-0.9c51.9,0,80.4,12.1,80.4,39.8
				c0,25.1-23.3,35.4-51.9,36.3v2.6c35.5,0.8,62.3,12.1,62.3,39.8c0,38.9-54.5,43.2-94.3,43.2c-46.7,0-66.6-0.8-96.9-0.8
				C640.1,554.8,640.1,474.3,637.5,434.6"/>
			<path style="clip-path:url(#SVGID_00000031922784784237371630000010641989801077963656_);fill:#004433;" d="M230.1,667.7
				c-1.3-0.4-2.8-0.6-4.5-0.8c-1.6-0.1-3.2-0.2-4.7-0.2c-5.2,0-9.3,1.1-12.2,3.4c-2.9,2.3-4.4,6-4.4,11.1v7.8v2.7c0,0.8,0,1.6,0,2.5
				c0,0.8,0,1.7-0.1,2.7c0,1,0,2.1,0,3.5c-1.1,0.2-2.4,0.4-3.8,0.5c-1.4,0.1-2.8,0.1-4.3,0.1c-3.7,0-6.6-0.5-8.7-1.4
				c-2.1-1-3.7-2.2-4.8-3.8c-1.1-1.6-1.8-3.5-2.1-5.6c-0.3-2.1-0.4-4.4-0.4-6.8c0-0.8,0.1-1.8,0.2-3.1l0.3-3.6
				c0.1-1-0.2-1.4-1.1-1.4h-3.1c-0.8,0-1.2,0.5-1.4,1.4c-0.1,0.7-0.3,1.5-0.4,2.3c-0.1,0.8-0.2,1.7-0.3,2.5
				c-0.1,0.8-0.1,1.6-0.2,2.3c0,0.7-0.1,1.3-0.1,1.7c0,3.3,0.3,6.2,1,8.9c0.7,2.7,1.8,4.9,3.5,6.8c1.7,1.9,3.9,3.3,6.6,4.3
				c2.8,1,6.3,1.5,10.6,1.5c2.3,0,4.6-0.1,6.8-0.2c2.2-0.1,4.2-0.4,6-0.7c0.5-0.1,0.9-0.3,1.2-0.5c0.3-0.2,0.4-0.6,0.4-1
				c0-0.7,0.1-1.4,0.1-2.3c0-0.9,0-1.7,0-2.7v-2.7v-2.3v-13c0-1.8,0.2-3.3,0.7-4.5c0.5-1.2,1.1-2.1,1.9-2.8c0.8-0.7,1.9-1.2,3.1-1.5
				c1.2-0.3,2.6-0.4,4.1-0.4c0.9,0,1.6,0,2.3,0.1c0.7,0,1.6,0.1,2.6,0.3v20.9c0,0.4,0.1,0.7,0.4,1c0.2,0.3,0.6,0.4,0.9,0.4h3.4
				c0.4,0,0.8-0.1,1-0.4c0.2-0.3,0.4-0.6,0.4-1V669c0-0.4-0.1-0.7-0.3-0.9C230.8,668,230.5,667.8,230.1,667.7"/>
			<path style="clip-path:url(#SVGID_00000031922784784237371630000010641989801077963656_);fill:#004433;" d="M188,712.9h-2.7
				c-0.4,0-0.8,0.1-1.1,0.4c-0.3,0.3-0.5,0.6-0.5,1.1v3.6c0,0.4,0.2,0.7,0.5,1c0.3,0.3,0.7,0.4,1.1,0.4h2.7c0.4,0,0.8-0.1,1.1-0.4
				c0.3-0.3,0.5-0.6,0.5-1v-3.6c0-0.5-0.2-0.9-0.5-1.1C188.9,713,188.5,712.9,188,712.9"/>
			<path style="clip-path:url(#SVGID_00000031922784784237371630000010641989801077963656_);fill:#004433;" d="M200.8,713.3
				c-0.3-0.3-0.7-0.4-1.1-0.4H197c-0.4,0-0.8,0.1-1.1,0.4c-0.3,0.3-0.5,0.6-0.5,1.1v3.6c0,0.4,0.2,0.7,0.5,1
				c0.3,0.3,0.7,0.4,1.1,0.4h2.7c0.4,0,0.7-0.1,1.1-0.4c0.3-0.3,0.5-0.6,0.5-1v-3.6C201.3,713.9,201.1,713.5,200.8,713.3"/>
			<path style="clip-path:url(#SVGID_00000031922784784237371630000010641989801077963656_);fill:#004433;" d="M267.3,681.3
				c0-0.8,0-1.2,0-1.4c-0.1-2.6-0.5-5-1.1-7.1c-0.6-2.2-1.6-4-3-5.6c-1.4-1.6-3.2-2.8-5.4-3.7c-2.2-0.9-5-1.3-8.2-1.3
				c-0.5,0-1.4,0-2.5,0.1c-1.1,0-2.3,0.2-3.6,0.4c-0.5,0-0.9,0.2-1.1,0.4c-0.2,0.2-0.3,0.6-0.3,0.9v2.9c0,0.8,0.5,1.1,1.4,1
				c0.7-0.1,1.6-0.2,2.5-0.2c1,0,1.7,0,2.2,0c4.6,0,7.8,1,9.9,3.1c2,2.1,3.1,5.2,3.2,9.4l0.1,8.8h-19.6c-0.4,0-0.7,0.1-1,0.4
				c-0.3,0.2-0.4,0.6-0.4,0.9v3.7c0,0.4,0.1,0.7,0.4,0.9c0.3,0.2,0.6,0.3,1,0.3h23.9c1.1,0,1.6-0.5,1.6-1.4c0-0.3,0.1-0.8,0.1-1.3
				v-1.6c0-0.6,0.1-1.1,0.1-1.6V688v-1.7c0-0.8,0-1.7,0-2.6C267.3,682.9,267.3,682,267.3,681.3"/>
			<path style="clip-path:url(#SVGID_00000031922784784237371630000010641989801077963656_);fill:#004433;" d="M421.2,641.2h-3.5
				c-0.4,0-0.7,0.1-1,0.4c-0.3,0.3-0.4,0.6-0.4,1v43.8c0,1.2-0.2,2-0.5,2.2c-0.4,0.2-1.2,0.4-2.6,0.4h-5.3h-0.4h-0.9
				c-0.4,0-0.9,0-1.5-0.1c-0.6,0-1.1-0.1-1.7-0.3c-0.6-0.1-1.1-0.3-1.6-0.5c-0.5-0.2-0.8-0.5-0.9-0.9v-21.6c0-0.4-0.1-0.7-0.4-1
				c-0.2-0.3-0.6-0.4-0.9-0.4h-3.4c-0.4,0-0.7,0.1-1,0.4c-0.3,0.3-0.4,0.6-0.4,1v20.9c0,0.6-0.2,1-0.5,1.4c-0.4,0.4-0.8,0.6-1.3,0.8
				c-0.5,0.2-1.1,0.3-1.7,0.3c-0.6,0-1.1,0.1-1.5,0.1h-0.9c-1.2,0-2.4-0.1-3.6-0.3c-1.1-0.2-1.9-0.7-2.2-1.4v-19
				c0-0.4-0.1-0.7-0.4-1c-0.2-0.3-0.6-0.4-0.9-0.4h-3.3c-0.4,0-0.7,0.1-1,0.4c-0.3,0.3-0.4,0.6-0.4,1v18.2c0,0.6-0.2,1-0.5,1.4
				c-0.3,0.3-0.7,0.6-1.2,0.8c-0.5,0.2-1,0.3-1.5,0.4c-0.6,0.1-1,0.1-1.5,0.1h-1.5c-0.4,0-0.9,0-1.5-0.1c-0.6,0-1.1-0.1-1.7-0.3
				c-0.6-0.1-1.1-0.3-1.5-0.5c-0.5-0.2-0.8-0.5-0.9-0.9v-16.6c0-0.4-0.1-0.7-0.4-1c-0.2-0.3-0.6-0.4-0.9-0.4h-3.3
				c-0.4,0-0.7,0.1-0.9,0.4c-0.2,0.3-0.4,0.6-0.4,1v15.5c0,0.6-0.2,1.1-0.5,1.5c-0.4,0.4-0.8,0.6-1.3,0.8c-0.5,0.2-1,0.3-1.6,0.3
				c-0.6,0-1.1,0.1-1.6,0.1h-2.3h-0.4h-8.6c0.7-0.5,1.4-1.2,2-2c0.6-0.9,1.1-1.9,1.5-2.9c0.4-1.1,0.8-2.2,1-3.4
				c0.2-1.2,0.4-2.4,0.4-3.5v-1.4c0-2.4-0.4-4.6-1.2-6.3c-0.8-1.8-1.9-3.2-3.3-4.3c-1.4-1.1-3.2-2-5.1-2.5c-2-0.5-4.2-0.8-6.5-0.8
				c-1.4,0-2.9,0.1-4.3,0.4c-1.4,0.2-2.8,0.6-4.2,1c-1.3,0.4-2.6,0.9-3.7,1.5c-1.1,0.6-2.1,1.3-2.9,2c-0.8,0.6-1.2,1.2-1.2,1.9
				l-0.1,2.1c0,0.2,0,0.4,0,0.6c0,0.2,0.1,0.4,0.2,0.6l6.8,17.2H311h-0.4h-5.8v-24.6c0-0.4-0.1-0.7-0.2-0.8
				c-0.1-0.2-0.4-0.3-0.9-0.5c-1.2-0.4-2.8-0.7-4.6-0.8c-1.8-0.2-3.7-0.3-5.6-0.3c-5.5,0-9.7,1.5-12.6,4.4c-3,2.9-4.5,6.9-4.5,11.9
				v1.8c0,5,1.3,8.8,3.9,11.3c2.6,2.5,6.3,3.7,11.1,3.7h7.2v2.9c0,1.7-0.4,3.1-0.9,4.2c-0.6,1.1-1.4,1.9-2.5,2.5
				c-1.1,0.6-2.4,1-3.9,1.2c-1.5,0.2-3.2,0.3-5.1,0.3c-0.8,0-1.8,0-3,0c-1.2,0-2.3,0-3.1,0c-0.8,0-1.1,0.3-1.1,1v3.2
				c0,0.3,0.1,0.6,0.2,0.8c0.1,0.2,0.5,0.3,0.9,0.4c0.2,0,0.7,0.1,1.3,0.1c0.6,0,1.3,0.1,2.1,0.1h2.2c0.8,0,1.4,0.1,1.9,0.1
				c2.5,0,4.8-0.2,6.9-0.7c2.1-0.5,3.9-1.2,5.4-2.3c1.5-1.1,2.7-2.5,3.5-4.3c0.9-1.8,1.3-4,1.4-6.7v-2.7h5.9h0.4h40.5h0.4h1.9
				c0.6,0,1.3,0,2-0.1c0.7,0,1.5-0.2,2.3-0.4c0.8-0.2,1.5-0.4,2.3-0.7c0.7-0.3,1.4-0.7,2-1.2c1.1,1,2.4,1.6,3.9,1.9
				c1.5,0.3,2.9,0.5,4.1,0.5h1.2c3.6,0,6.4-0.8,8.3-2.4c1.3,1,2.6,1.6,3.9,1.9c1.3,0.3,2.8,0.5,4.5,0.5h1.1c1.4,0,2.8-0.2,4.4-0.5
				c1.5-0.3,2.9-0.9,4-1.9c1.2,1,2.7,1.6,4.4,1.9c1.7,0.3,3.2,0.5,4.5,0.5h0.8h0.4h3.4c0.8,0,1.7,0,2.6,0c0.9,0,1.8-0.1,2.7-0.1
				c0.9-0.1,1.7-0.1,2.4-0.2c0.7-0.1,1.3-0.2,1.7-0.3c0.6-0.2,1-0.5,1.1-0.9c0.2-0.3,0.3-0.7,0.4-1.2c0.1-0.6,0.2-1.2,0.2-1.9
				c0-0.7,0.1-1.5,0.1-2.2c0-0.8,0-1.5,0-2.2v-1.9v-41.5c0-0.4-0.1-0.7-0.4-1C421.9,641.4,421.6,641.2,421.2,641.2 M298.7,689.2
				h-7.1c-3.2,0-5.5-0.8-7-2.3c-1.4-1.5-2.2-4-2.2-7.4V678c0-3.3,0.9-5.8,2.8-7.6c1.8-1.8,4.3-2.7,7.5-2.7c1.2,0,2.3,0,3.2,0.1
				c0.9,0,1.8,0.1,2.8,0.2V689.2z M341.8,677.2c0,2.9-0.7,5.5-2.1,7.7c-1.4,2.2-3.4,3.6-5.9,4.2h-5.3l-7.3-18.8
				c1.8-1.2,3.6-2,5.6-2.3c2-0.3,3.6-0.5,4.8-0.5c3.2,0,5.7,0.7,7.5,2.1c1.8,1.4,2.7,3.7,2.7,6.9V677.2z"/>
			<path style="clip-path:url(#SVGID_00000031922784784237371630000010641989801077963656_);fill:#004433;" d="M439.6,641.2h-3.5
				c-0.4,0-0.7,0.1-1,0.4c-0.3,0.3-0.4,0.6-0.4,1v51.2c0,0.4,0.1,0.7,0.4,1c0.3,0.3,0.6,0.4,1,0.4h3.5c0.4,0,0.7-0.1,0.9-0.4
				c0.2-0.3,0.4-0.6,0.4-1v-51.2c0-0.4-0.1-0.7-0.4-1C440.3,641.3,440,641.2,439.6,641.2"/>
			<path style="clip-path:url(#SVGID_00000031922784784237371630000010641989801077963656_);fill:#004433;" d="M495.7,713.3
				c-0.3-0.3-0.7-0.4-1.1-0.4h-2.8c-0.4,0-0.7,0.1-1.1,0.4c-0.3,0.3-0.5,0.6-0.5,1.1v3.6c0,0.4,0.2,0.7,0.5,1
				c0.3,0.3,0.7,0.4,1.1,0.4h2.8c0.4,0,0.7-0.1,1.1-0.4c0.3-0.3,0.5-0.6,0.5-1v-3.6C496.2,713.9,496,713.5,495.7,713.3"/>
			<path style="clip-path:url(#SVGID_00000031922784784237371630000010641989801077963656_);fill:#004433;" d="M484,713.3
				c-0.3-0.3-0.7-0.4-1.1-0.4h-2.7c-0.5,0-0.9,0.1-1.2,0.4c-0.3,0.3-0.5,0.6-0.5,1.1v3.6c0,0.4,0.2,0.7,0.5,1
				c0.3,0.3,0.7,0.4,1.2,0.4h2.7c0.4,0,0.8-0.1,1.1-0.4c0.4-0.3,0.5-0.6,0.5-1v-3.6C484.5,713.9,484.4,713.5,484,713.3"/>
			<path style="clip-path:url(#SVGID_00000031922784784237371630000010641989801077963656_);fill:#004433;" d="M593.4,663.3
				c-2.1-1.5-4.4-2.5-7.1-3.1c-2.7-0.6-5.5-0.9-8.4-0.9c-0.5,0-1.3,0-2.4,0c-1.1,0-2.2,0.1-3.3,0.3c-0.9,0.2-1.4,0.7-1.4,1.4v3
				c0,0.7,0.5,1,1.4,0.9c0.8,0,1.7-0.1,2.9-0.1h2.9c2.3,0,4.5,0.2,6.5,0.7c2,0.5,3.7,1.3,5.1,2.4c1.4,1.1,2.6,2.6,3.3,4.5
				c0.8,1.8,1.2,4.2,1.2,6.9v3.6c0,1.3,0,2.3-0.1,3.1c-0.1,0.8-0.2,1.4-0.3,1.8c-0.1,0.4-0.3,0.7-0.6,0.8c-0.3,0.1-0.6,0.2-1,0.2
				h-9.7c0.9-0.9,1.5-2,1.9-3.3c0.4-1.3,0.6-2.8,0.6-4.4v-2.3c0-4-1-7-3-9.1c-2-2.1-5.1-3.1-9.1-3.1c-4.1,0-7.2,1.1-9.3,3.2
				c-2.2,2.2-3.2,5.2-3.2,9v2.3c0,1.6,0.2,3.1,0.5,4.4c0.3,1.3,0.9,2.4,1.7,3.2h-8.1h-0.4h-0.6c-0.4,0-0.9,0-1.5-0.1
				c-0.6,0-1.1-0.1-1.7-0.3c-0.6-0.1-1.1-0.3-1.5-0.5c-0.5-0.2-0.8-0.5-0.9-0.9v-44.7c0-0.4-0.1-0.7-0.4-1c-0.2-0.3-0.6-0.4-0.9-0.4
				h-3.5c-0.4,0-0.7,0.1-1,0.4c-0.3,0.3-0.4,0.6-0.4,1v43.8c0,0.6-0.2,1.1-0.5,1.5c-0.4,0.4-0.8,0.6-1.3,0.8
				c-0.5,0.2-1.1,0.3-1.7,0.3c-0.6,0-1.1,0.1-1.6,0.1H533h-0.4h-2.9c-1.5,0-2.5-0.2-3-0.5c-0.5-0.3-0.8-1-0.8-2.2V669
				c0-0.4-0.1-0.7-0.3-0.9c-0.2-0.2-0.5-0.3-0.9-0.4c-1.3-0.3-2.8-0.6-4.4-0.7s-3.2-0.2-4.8-0.2c-5.1,0-9.1,1.1-12,3.4
				c-2.9,2.3-4.3,6-4.3,11.1v7.8v2.7v2.4c0,0.9,0,1.8,0,2.8c0,1,0,2.1,0,3.5c-1.1,0.2-2.4,0.4-3.8,0.5c-1.5,0.1-2.9,0.1-4.3,0.1
				c-3.7,0-6.6-0.5-8.7-1.4c-2.1-1-3.7-2.2-4.8-3.8c-1.1-1.6-1.8-3.5-2.1-5.6c-0.3-2.1-0.5-4.4-0.5-6.8c0-0.8,0.1-1.9,0.2-3.1
				c0.1-1.3,0.3-2.5,0.4-3.6c0-1-0.3-1.4-1.1-1.4h-3c-0.8,0-1.3,0.5-1.4,1.4c-0.1,0.7-0.3,1.5-0.4,2.3c-0.1,0.8-0.2,1.7-0.3,2.5
				c-0.1,0.8-0.1,1.6-0.2,2.3c0,0.7-0.1,1.3-0.1,1.7c0,3.3,0.3,6.2,1,8.9c0.7,2.7,1.8,4.9,3.5,6.8c1.7,1.9,3.9,3.3,6.7,4.3
				c2.8,1,6.3,1.5,10.6,1.5c2.3,0,4.6-0.1,6.8-0.2c2.2-0.1,4.2-0.4,6-0.7c1-0.2,1.5-0.7,1.5-1.5c0-0.7,0.1-1.4,0.1-2.3v-2.7
				c0-1,0.1-1.9,0.1-2.7v-2.3v-13c0-1.8,0.2-3.3,0.7-4.5c0.5-1.2,1.1-2.1,1.9-2.8c0.8-0.7,1.9-1.2,3.1-1.5c1.2-0.3,2.6-0.4,4.1-0.4
				c0.9,0,1.6,0,2.3,0.1c0.7,0,1.5,0.1,2.5,0.3v14.9c0,2.8,0.6,4.8,1.9,5.9c1.2,1.1,3.4,1.6,6.4,1.6h4.4h0.4h2.7
				c1.3,0,2.8-0.2,4.5-0.5c1.7-0.3,3.1-0.9,4.3-1.9c0.5,0.5,1.2,0.9,1.9,1.2c0.7,0.3,1.5,0.6,2.3,0.7c0.8,0.2,1.6,0.3,2.4,0.4
				c0.8,0.1,1.6,0.1,2.3,0.1h0.4h0.4h27.9h3.6c1.4,0,2.8,0,4.2,0c1.4,0,2.7,0,4-0.1c1.2,0,2.2-0.1,2.9-0.2c0.8-0.1,1.4-0.4,1.8-0.8
				c0.4-0.5,0.6-0.9,0.7-1.4c0.4-1.6,0.6-3.3,0.7-5.2c0.1-1.9,0.1-3.6,0.1-5.2v-3.6c0-3.8-0.6-6.9-1.8-9.4
				C597.1,666.8,595.5,664.8,593.4,663.3 M579.3,681.8c0,2.3-0.5,4.2-1.5,5.6c-1,1.4-2.8,2.1-5.4,2.1c-2.5,0-4.3-0.7-5.2-2.2
				c-0.9-1.4-1.4-3.3-1.4-5.5v-2.4c0-2.3,0.5-4.2,1.5-5.6c1-1.4,2.8-2,5.4-2c2.6,0,4.3,0.7,5.2,2c0.9,1.4,1.4,3.2,1.4,5.6V681.8z"/>
			<path style="clip-path:url(#SVGID_00000031922784784237371630000010641989801077963656_);fill:#004433;" d="M615.9,642.3h9.7
				c0.4,0,0.7,0,0.9-0.1c0.2-0.1,0.3-0.3,0.3-0.7v-1.2c0-0.6-0.4-0.9-1.2-0.9h-4.8c-0.4-0.2-0.7-0.6-1.1-1.3
				c-0.3-0.6-0.5-1.5-0.5-2.5c0-2.2,1.3-3.2,3.8-3.2c0.2,0,0.6,0,1.2,0c0.6,0,0.9,0,1,0c0.6,0,0.9-0.3,0.9-0.8v-1
				c0-0.4-0.3-0.7-0.8-0.9c-0.5-0.1-1-0.2-1.4-0.2c-0.5,0-0.9-0.1-1.3-0.1c-2.2,0-3.8,0.5-5,1.4c-1.2,0.9-1.8,2.4-1.8,4.4
				c0,0.7,0.1,1.4,0.3,2.2c0.2,0.7,0.5,1.4,0.9,1.9h-1.2c-0.9,0-1.3,0.2-1.3,0.7v1.2C614.6,642,615,642.3,615.9,642.3"/>
			<path style="clip-path:url(#SVGID_00000031922784784237371630000010641989801077963656_);fill:#004433;" d="M622.5,647.7H619
				c-0.4,0-0.7,0.1-1,0.4c-0.3,0.3-0.4,0.6-0.4,1v32c0,0.9,0.5,1.4,1.4,1.4h3.4c0.9,0,1.3-0.5,1.3-1.4v-32c0-0.4-0.1-0.7-0.3-1
				C623.2,647.8,622.9,647.7,622.5,647.7"/>
			<path style="clip-path:url(#SVGID_00000031922784784237371630000010641989801077963656_);fill:#004433;" d="M643.6,641.2H640
				c-0.4,0-0.7,0.1-0.9,0.4c-0.2,0.3-0.4,0.6-0.4,1v43.8c0,1.2-0.2,2-0.6,2.2c-0.4,0.2-1.3,0.4-2.7,0.4h-25.9
				c-0.9,0-1.4,0.4-1.4,1.3v3.7c0,0.8,0.5,1.2,1.4,1.2h23.9c0.9,0,1.8,0,2.8,0c1,0,1.9-0.1,2.8-0.1c0.9-0.1,1.7-0.1,2.4-0.2
				c0.7-0.1,1.3-0.2,1.7-0.3c0.6-0.2,1-0.5,1.2-0.9c0.2-0.3,0.3-0.7,0.4-1.2c0.1-1,0.2-2.2,0.2-3.4c0-1.3,0.1-2.9,0.1-4.9v-41.5
				c0-0.4-0.1-0.7-0.3-1C644.3,641.3,644,641.2,643.6,641.2"/>
			<path style="clip-path:url(#SVGID_00000031922784784237371630000010641989801077963656_);fill:#004433;" d="M662.4,641.2h-3.5
				c-0.4,0-0.7,0.1-1,0.4c-0.3,0.3-0.4,0.6-0.4,1v51.2c0,0.4,0.1,0.7,0.4,1c0.3,0.3,0.6,0.4,1,0.4h3.5c0.4,0,0.7-0.1,0.9-0.4
				c0.2-0.3,0.4-0.6,0.4-1v-51.2c0-0.4-0.1-0.7-0.4-1C663.1,641.3,662.8,641.2,662.4,641.2"/>
			<path style="clip-path:url(#SVGID_00000031922784784237371630000010641989801077963656_);fill:#004433;" d="M709.2,672.6h10.6
				c0.9,0,1.4-0.3,1.4-1v-1.7c0-0.7-0.5-1-1.4-1h-5.2c-0.3-0.1-0.7-0.6-1-1.2c-0.3-0.7-0.5-1.5-0.5-2.4c0-1.1,0.3-2,0.9-2.6
				c0.6-0.6,1.6-1,2.9-1c0.5,0,0.9,0,1.4,0.1c0.4,0,0.9,0.1,1.3,0.1c0.6,0,0.9-0.3,0.9-0.9v-1.4c0-0.6-0.3-1-0.9-1.1
				c-1-0.2-1.9-0.3-2.9-0.3c-2.4,0-4.2,0.6-5.5,1.7c-1.3,1.1-1.9,2.8-1.9,5.1c0,0.8,0.1,1.5,0.3,2.3c0.2,0.8,0.4,1.4,0.8,1.9h-1.1
				c-0.9,0-1.4,0.3-1.4,0.9v1.7C707.8,672.3,708.2,672.6,709.2,672.6"/>
			<path style="clip-path:url(#SVGID_00000031922784784237371630000010641989801077963656_);fill:#004433;" d="M755.9,656.8h3.1
				c0.5,0,0.9-0.1,1.2-0.4c0.3-0.3,0.5-0.6,0.5-1.1v-3.9c0-0.5-0.2-0.9-0.5-1.1c-0.3-0.3-0.7-0.4-1.1-0.4h-3.2
				c-0.4,0-0.8,0.1-1.1,0.4c-0.3,0.3-0.5,0.7-0.5,1.1v3.9c0,0.4,0.2,0.8,0.5,1.1C755.1,656.7,755.5,656.8,755.9,656.8"/>
			<path style="clip-path:url(#SVGID_00000031922784784237371630000010641989801077963656_);fill:#004433;" d="M779.1,701.9h-3.1
				c-0.4,0-0.8,0.1-1.1,0.4c-0.3,0.3-0.5,0.7-0.5,1.1v3.9c0,0.4,0.2,0.7,0.5,1c0.3,0.3,0.7,0.5,1.1,0.5h3.1c0.4,0,0.8-0.2,1.1-0.5
				c0.3-0.3,0.5-0.7,0.5-1v-3.9c0-0.5-0.2-0.9-0.5-1.1C780,702,779.6,701.9,779.1,701.9"/>
			<path style="clip-path:url(#SVGID_00000031922784784237371630000010641989801077963656_);fill:#004433;" d="M801,641.2h-3.5
				c-0.4,0-0.7,0.1-1,0.4c-0.3,0.3-0.4,0.6-0.4,1v43.8c0,1.2-0.2,2-0.5,2.2c-0.4,0.2-1.2,0.4-2.6,0.4h-5.3h-0.4h-0.6
				c-0.4,0-0.9,0-1.5-0.1c-0.6,0-1.1-0.1-1.7-0.3c-0.6-0.1-1.1-0.3-1.5-0.5c-0.5-0.2-0.8-0.5-0.9-0.9v-19.8c0-0.4-0.1-0.7-0.4-1
				c-0.3-0.3-0.6-0.4-1-0.4h-3.3c-0.4,0-0.7,0.1-1,0.4c-0.3,0.3-0.4,0.6-0.4,1v18.8c0,0.6-0.2,1.1-0.5,1.5c-0.4,0.4-0.8,0.6-1.3,0.8
				c-0.5,0.2-1.1,0.3-1.7,0.3c-0.6,0-1.1,0.1-1.6,0.1h-2.8h-0.4h-0.6c-0.4,0-0.9,0-1.5-0.1c-0.6,0-1.1-0.1-1.7-0.3
				c-0.6-0.1-1.1-0.3-1.5-0.5c-0.5-0.2-0.8-0.5-0.9-0.9v-19.8c0-0.4-0.1-0.7-0.4-1c-0.3-0.3-0.6-0.4-1-0.4h-3.3
				c-0.4,0-0.7,0.1-1,0.4c-0.3,0.3-0.4,0.6-0.4,1v18.8c0,0.6-0.2,1.1-0.5,1.5c-0.4,0.4-0.8,0.6-1.3,0.8c-0.5,0.2-1.1,0.3-1.7,0.3
				c-0.6,0-1.1,0.1-1.6,0.1h-2.8h-0.4h-0.6c-0.4,0-0.9,0-1.5-0.1c-0.6,0-1.1-0.1-1.7-0.3c-0.6-0.1-1.1-0.3-1.5-0.5
				c-0.5-0.2-0.8-0.5-0.9-0.9v-44.7c0-0.4-0.1-0.7-0.4-1c-0.3-0.3-0.6-0.4-1-0.4H735c-0.4,0-0.7,0.1-1,0.4c-0.3,0.3-0.4,0.6-0.4,1
				v43.8c0,0.6-0.2,1.1-0.5,1.5c-0.4,0.4-0.8,0.6-1.3,0.8c-0.5,0.2-1.1,0.3-1.7,0.3c-0.6,0-1.1,0.1-1.6,0.1h-17.1
				c-2.6,0-4.8-0.1-6.6-0.4c-1.8-0.3-3.4-0.8-4.5-1.5c-1.2-0.7-2-1.8-2.6-3.1c-0.6-1.3-0.8-3-0.8-5v-1.2c0-0.5,0-1.1,0.1-1.7
				c0-1-0.3-1.5-1.1-1.5h-3.1c-0.7,0-1.2,0.5-1.4,1.4c-0.1,0.6-0.2,1.4-0.2,2.4c0,1-0.1,1.7-0.1,2.2c0,2.7,0.4,4.9,1.1,6.8
				c0.7,1.8,1.9,3.4,3.4,4.5c1.6,1.2,3.6,2,6,2.5c2.5,0.5,5.4,0.8,8.9,0.8H728c1.4,0,2.9-0.1,4.6-0.4c1.7-0.3,3.1-0.8,4.3-1.8
				c1.2,0.9,2.6,1.4,4.3,1.7c1.7,0.3,3.2,0.4,4.5,0.4h0.4h0.4h1.9c1.3,0,2.8-0.2,4.5-0.5c1.7-0.3,3.1-0.9,4.3-1.9
				c1.1,1,2.5,1.6,4.2,1.9c1.7,0.3,3.3,0.5,4.8,0.5h0.4h0.4h1.9c1.3,0,2.8-0.2,4.5-0.5c1.7-0.3,3.1-0.9,4.3-1.9
				c1.1,1,2.5,1.6,4.2,1.9c1.7,0.3,3.3,0.5,4.8,0.5h0.4h0.4h3.4c0.8,0,1.7,0,2.6,0c0.9,0,1.8-0.1,2.7-0.1c0.9-0.1,1.7-0.1,2.4-0.2
				c0.7-0.1,1.3-0.2,1.7-0.3c0.6-0.2,1-0.5,1.1-0.9c0.2-0.3,0.3-0.7,0.4-1.2c0.1-0.6,0.2-1.2,0.2-1.9c0-0.7,0.1-1.5,0.1-2.2
				c0-0.8,0-1.5,0-2.2v-1.9v-41.5c0-0.4-0.1-0.7-0.4-1C801.7,641.4,801.4,641.2,801,641.2"/>
			<path style="clip-path:url(#SVGID_00000031922784784237371630000010641989801077963656_);fill:#004433;" d="M820.3,641.6
				c-0.2-0.3-0.6-0.4-0.9-0.4h-3.5c-0.4,0-0.7,0.1-1,0.4c-0.3,0.3-0.4,0.6-0.4,1v51.2c0,0.4,0.1,0.7,0.4,1c0.3,0.3,0.6,0.4,1,0.4
				h3.5c0.4,0,0.7-0.1,0.9-0.4c0.2-0.3,0.4-0.6,0.4-1v-51.2C820.7,642.2,820.6,641.9,820.3,641.6"/>
		</g>
	</g>
</g>
</svg>
