<?xml version="1.0" encoding="UTF-8"?>
<svg xmlns="http://www.w3.org/2000/svg" xmlns:xlink="http://www.w3.org/1999/xlink" width="936.68pt" height="206.37pt" viewBox="0 0 936.68 206.37" version="1.1">
<defs>
<clipPath id="clip1">
  <path d="M 382 143 L 407 143 L 407 206.371094 L 382 206.371094 Z M 382 143 "/>
</clipPath>
<clipPath id="clip2">
  <path d="M 787 0 L 936.679688 0 L 936.679688 206 L 787 206 Z M 787 0 "/>
</clipPath>
</defs>
<g id="surface1">
<path style=" stroke:none;fill-rule:nonzero;fill:rgb(5.499268%,25.498962%,42.399597%);fill-opacity:1;" d="M 31.300781 195.066406 C 34.902344 195.066406 38.15625 193.355469 38.15625 186.769531 C 38.15625 182.21875 36.320313 178.074219 31.300781 178.074219 L 11.902344 178.074219 L 11.902344 195.066406 Z M 30.832031 168.074219 C 35.089844 168.074219 37.355469 165.476563 37.355469 161.046875 C 37.355469 155.296875 33.84375 153.964844 30.832031 153.964844 L 11.902344 153.964844 L 11.902344 168.074219 Z M 0 143.496094 L 31.53125 143.496094 C 44.371094 143.496094 49.03125 151.164063 49.03125 160.066406 C 49.03125 165.777344 46.601563 172.210938 40.53125 173.332031 C 45.707031 174.269531 50.023438 179.425781 50.023438 187.3125 C 50.023438 198.84375 44.8125 205.535156 31.765625 205.535156 L 3.972656 205.535156 C 1.773438 205.535156 0 203.753906 0 201.558594 "/>
<path style=" stroke:none;fill-rule:nonzero;fill:rgb(5.499268%,25.498962%,42.399597%);fill-opacity:1;" d="M 92.152344 181.273438 L 85.179688 159.132813 L 77.722656 181.273438 Z M 81.203125 143.496094 L 88.960938 143.496094 C 90.683594 143.496094 92.207031 144.609375 92.738281 146.246094 L 111.996094 205.535156 L 102.261719 205.535156 C 100.539063 205.535156 99.007813 204.417969 98.480469 202.773438 L 94.960938 191.785156 L 74.640625 191.785156 L 71.054688 202.789063 C 70.523438 204.421875 69.003906 205.535156 67.28125 205.535156 L 57.417969 205.535156 L 77.441406 146.199219 C 77.988281 144.585938 79.5 143.496094 81.203125 143.496094 "/>
<path style=" stroke:none;fill-rule:nonzero;fill:rgb(5.499268%,25.498962%,42.399597%);fill-opacity:1;" d="M 127.390625 143.5 L 135.453125 143.5 L 160.066406 183.585938 L 160.066406 147.472656 C 160.066406 145.277344 161.84375 143.5 164.039063 143.5 L 171.929688 143.5 L 171.929688 205.53125 L 160.066406 205.53125 L 135.367188 165.910156 L 135.367188 205.53125 L 127.390625 205.53125 C 125.195313 205.53125 123.417969 203.753906 123.417969 201.5625 L 123.417969 147.472656 C 123.417969 145.277344 125.195313 143.5 127.390625 143.5 "/>
<path style=" stroke:none;fill-rule:nonzero;fill:rgb(5.499268%,25.498962%,42.399597%);fill-opacity:1;" d="M 185.960938 143.5 L 193.386719 143.5 C 195.578125 143.5 197.355469 145.277344 197.355469 147.472656 L 197.355469 169.433594 L 202.347656 169.433594 L 216.902344 145.414063 C 217.628906 144.226563 218.914063 143.5 220.304688 143.5 L 231.890625 143.5 L 212.910156 174.570313 L 231.890625 205.53125 L 220.289063 205.53125 C 218.90625 205.53125 217.628906 204.8125 216.902344 203.636719 L 202.347656 179.898438 L 197.441406 179.898438 L 197.441406 201.5625 C 197.441406 203.753906 195.664063 205.53125 193.472656 205.53125 L 185.960938 205.53125 "/>
<path style=" stroke:none;fill-rule:nonzero;fill:rgb(5.499268%,25.498962%,42.399597%);fill-opacity:1;" d="M 303.003906 181.273438 L 296.03125 159.132813 L 288.574219 181.273438 Z M 292.058594 143.496094 L 299.816406 143.496094 C 301.535156 143.496094 303.0625 144.609375 303.59375 146.246094 L 322.847656 205.535156 L 313.117188 205.535156 C 311.390625 205.535156 309.859375 204.417969 309.335938 202.773438 L 305.8125 191.785156 L 285.496094 191.785156 L 281.910156 202.789063 C 281.378906 204.421875 279.855469 205.535156 278.132813 205.535156 L 268.273438 205.535156 L 288.292969 146.199219 C 288.839844 144.585938 290.355469 143.496094 292.058594 143.496094 "/>
<path style=" stroke:none;fill-rule:nonzero;fill:rgb(5.499268%,25.498962%,42.399597%);fill-opacity:1;" d="M 346.132813 194.601563 L 368.683594 194.601563 C 370.878906 194.601563 372.660156 196.378906 372.660156 198.574219 L 372.660156 205.535156 L 338.242188 205.535156 C 336.046875 205.535156 334.269531 203.753906 334.269531 201.558594 L 334.269531 143.496094 L 342.160156 143.496094 C 344.355469 143.496094 346.132813 145.277344 346.132813 147.472656 "/>
<g clip-path="url(#clip1)" clip-rule="nonzero">
<path style=" stroke:none;fill-rule:nonzero;fill:rgb(5.499268%,25.498962%,42.399597%);fill-opacity:1;" d="M 382.304688 194.332031 C 390.019531 195.015625 394.394531 195.265625 394.429688 186.375 L 394.429688 147.472656 C 394.429688 145.277344 396.210938 143.5 398.40625 143.5 L 406.296875 143.5 L 406.296875 191.550781 C 406.296875 195.53125 406.035156 201.296875 401.796875 204.007813 C 398.148438 206.347656 390.410156 206.871094 385.242188 205.921875 C 383.433594 205.585938 382.167969 203.933594 382.195313 202.097656 "/>
</g>
<path style=" stroke:none;fill-rule:nonzero;fill:rgb(5.499268%,25.498962%,42.399597%);fill-opacity:1;" d="M 452.75 181.273438 L 445.777344 159.132813 L 438.320313 181.273438 Z M 441.804688 143.496094 L 449.558594 143.496094 C 451.285156 143.496094 452.8125 144.609375 453.339844 146.246094 L 472.597656 205.535156 L 462.863281 205.535156 C 461.136719 205.535156 459.605469 204.414063 459.082031 202.773438 L 455.558594 191.785156 L 435.242188 191.785156 L 431.65625 202.789063 C 431.128906 204.421875 429.605469 205.535156 427.882813 205.535156 L 418.023438 205.535156 L 438.039063 146.199219 C 438.585938 144.585938 440.101563 143.496094 441.804688 143.496094 "/>
<path style=" stroke:none;fill-rule:nonzero;fill:rgb(5.499268%,25.498962%,42.399597%);fill-opacity:1;" d="M 481.136719 194.601563 L 509.566406 154.429688 L 481.136719 154.429688 L 481.136719 147.472656 C 481.136719 145.277344 482.914063 143.496094 485.105469 143.496094 L 519.871094 143.496094 C 522.070313 143.496094 523.851563 145.277344 523.851563 147.472656 L 523.851563 154.429688 L 496.8125 194.601563 L 523.851563 194.601563 L 523.851563 201.558594 C 523.851563 203.753906 522.070313 205.535156 519.871094 205.535156 L 485.105469 205.535156 C 482.914063 205.535156 481.136719 203.753906 481.136719 201.558594 "/>
<path style=" stroke:none;fill-rule:nonzero;fill:rgb(5.499268%,25.498962%,42.399597%);fill-opacity:1;" d="M 540.195313 143.5 L 548.089844 143.5 L 548.089844 205.53125 L 540.195313 205.53125 C 538.003906 205.53125 536.222656 203.753906 536.222656 201.5625 L 536.222656 147.472656 C 536.222656 145.277344 538.003906 143.5 540.195313 143.5 "/>
<path style=" stroke:none;fill-rule:nonzero;fill:rgb(5.499268%,25.498962%,42.399597%);fill-opacity:1;" d="M 591.207031 171.546875 C 595.339844 171.546875 597.308594 170.339844 597.308594 162.84375 C 597.308594 155.796875 594.933594 154.050781 591.207031 154.050781 L 573.171875 154.050781 L 573.171875 171.546875 Z M 561.261719 143.5 L 592.375 143.5 C 602.058594 143.5 609.257813 148.03125 609.257813 162.84375 C 609.257813 178.199219 602.824219 180.019531 599.382813 181.105469 L 611.128906 205.53125 L 600.378906 205.53125 C 598.796875 205.53125 597.367188 204.597656 596.738281 203.152344 L 587.519531 182.058594 L 573.128906 182.058594 L 573.128906 201.5625 C 573.128906 203.753906 571.34375 205.53125 569.152344 205.53125 L 561.261719 205.53125 "/>
<path style=" stroke:none;fill-rule:nonzero;fill:rgb(5.499268%,25.498962%,42.399597%);fill-opacity:1;" d="M 655.035156 181.273438 L 648.0625 159.132813 L 640.605469 181.273438 Z M 644.089844 143.496094 L 651.847656 143.496094 C 653.566406 143.496094 655.09375 144.609375 655.625 146.246094 L 674.878906 205.535156 L 665.144531 205.535156 C 663.421875 205.535156 661.890625 204.414063 661.363281 202.773438 L 657.84375 191.785156 L 637.527344 191.785156 L 633.941406 202.789063 C 633.410156 204.421875 631.886719 205.535156 630.164063 205.535156 L 620.304688 205.535156 L 640.324219 146.199219 C 640.867188 144.585938 642.382813 143.496094 644.089844 143.496094 "/>
<path style=" stroke:none;fill-rule:nonzero;fill:rgb(5.499268%,25.498962%,42.399597%);fill-opacity:1;" d="M 645.511719 96.277344 C 640.558594 96.277344 636.78125 100.328125 636.78125 105.226563 C 636.78125 110.121094 640.558594 114.082031 645.511719 114.082031 C 650.410156 114.082031 654.519531 110.121094 654.519531 105.226563 C 654.519531 100.328125 650.410156 96.277344 645.511719 96.277344 "/>
<path style=" stroke:none;fill-rule:nonzero;fill:rgb(5.499268%,25.498962%,42.399597%);fill-opacity:1;" d="M 607.832031 17.8125 C 612.761719 17.8125 616.71875 13.820313 616.71875 8.925781 C 616.71875 4.027344 612.761719 0.0390625 607.832031 0.0390625 C 602.9375 0.0390625 599.039063 4.027344 599.039063 8.925781 C 599.039063 13.820313 602.9375 17.8125 607.832031 17.8125 "/>
<path style=" stroke:none;fill-rule:nonzero;fill:rgb(5.499268%,25.498962%,42.399597%);fill-opacity:1;" d="M 519.664063 34.871094 L 519.664063 31.796875 L 494.082031 31.796875 L 494.082031 26.894531 C 494.082031 19.273438 497.296875 15.382813 503.902344 15.382813 C 506.042969 15.382813 508.039063 16.058594 509.878906 17.464844 C 511.570313 18.753906 513.914063 18.71875 515.40625 17.199219 L 519.464844 13.085938 C 514.894531 8.34375 510.328125 5.730469 505.082031 5.730469 C 491.710938 5.730469 483.753906 15.71875 483.753906 28.414063 L 483.753906 31.796875 C 481.34375 31.796875 479.386719 33.753906 479.386719 36.167969 L 479.386719 41.617188 L 512.914063 41.617188 C 516.640625 41.617188 519.664063 38.597656 519.664063 34.871094 "/>
<path style=" stroke:none;fill-rule:nonzero;fill:rgb(5.499268%,25.498962%,42.399597%);fill-opacity:1;" d="M 222.734375 17.847656 C 227.597656 17.847656 231.648438 13.859375 231.648438 8.960938 C 231.648438 4.066406 227.597656 0.046875 222.734375 0.046875 C 217.867188 0.046875 213.90625 4.066406 213.90625 8.960938 C 213.90625 13.859375 217.867188 17.847656 222.734375 17.847656 "/>
<path style=" stroke:none;fill-rule:nonzero;fill:rgb(5.499268%,25.498962%,42.399597%);fill-opacity:1;" d="M 142.953125 96.683594 C 139.78125 97.449219 137.296875 100.066406 136.578125 103.242188 C 135.183594 109.421875 140.039063 114.90625 146.246094 114.125 C 149.960938 113.664063 153.113281 110.867188 153.863281 107.195313 C 155.183594 100.75 149.285156 95.152344 142.953125 96.683594 "/>
<path style=" stroke:none;fill-rule:nonzero;fill:rgb(5.499268%,25.498962%,42.399597%);fill-opacity:1;" d="M 167.4375 96.429688 C 162.542969 96.429688 158.765625 100.449219 158.765625 105.375 C 158.765625 110.242188 162.542969 114.199219 167.4375 114.199219 C 172.335938 114.199219 176.355469 110.242188 176.355469 105.375 C 176.355469 100.449219 172.335938 96.429688 167.4375 96.429688 "/>
<path style=" stroke:none;fill-rule:nonzero;fill:rgb(5.499268%,25.498962%,42.399597%);fill-opacity:1;" d="M 32.785156 17.804688 C 36.5 17.339844 39.652344 14.546875 40.402344 10.875 C 41.71875 4.429688 35.824219 -1.167969 29.488281 0.363281 C 26.324219 1.128906 23.835938 3.746094 23.117188 6.925781 C 21.722656 13.101563 26.574219 18.582031 32.785156 17.804688 "/>
<path style=" stroke:none;fill-rule:nonzero;fill:rgb(5.499268%,25.498962%,42.399597%);fill-opacity:1;" d="M 53.976563 17.878906 C 58.871094 17.878906 62.894531 13.921875 62.894531 9.054688 C 62.894531 4.132813 58.871094 0.109375 53.976563 0.109375 C 49.082031 0.109375 45.300781 4.132813 45.300781 9.054688 C 45.300781 13.921875 49.082031 17.878906 53.976563 17.878906 "/>
<path style=" stroke:none;fill-rule:nonzero;fill:rgb(5.499268%,25.498962%,42.399597%);fill-opacity:1;" d="M 280.722656 96.25 C 275.976563 96.25 272.015625 100.296875 272.015625 105.191406 C 272.015625 110.089844 275.976563 114.078125 280.722656 114.078125 C 285.585938 114.078125 289.757813 110.089844 289.757813 105.191406 C 289.757813 100.296875 285.585938 96.25 280.722656 96.25 "/>
<path style=" stroke:none;fill-rule:nonzero;fill:rgb(5.499268%,25.498962%,42.399597%);fill-opacity:1;" d="M 398.070313 0.109375 L 387.394531 0.109375 L 387.394531 84.855469 L 398.070313 84.855469 C 400.398438 84.855469 402.289063 82.964844 402.289063 80.632813 L 402.289063 4.328125 C 402.289063 2 400.398438 0.109375 398.070313 0.109375 "/>
<path style=" stroke:none;fill-rule:nonzero;fill:rgb(5.499268%,25.498962%,42.399597%);fill-opacity:1;" d="M 58.945313 65.789063 C 58.945313 76.34375 50.632813 81.714844 42.929688 81.714844 L 31.246094 81.714844 C 20.683594 81.714844 15.316406 73.40625 15.316406 65.789063 C 15.316406 58.085938 20.683594 49.773438 31.246094 49.773438 L 58.945313 49.773438 Z M 0.601563 65.789063 C 0.601563 81.453125 10.816406 96.429688 31.246094 96.429688 L 42.929688 96.429688 C 58.683594 96.429688 73.660156 86.214844 73.660156 65.789063 L 73.660156 35.058594 L 31.246094 35.058594 C 10.816406 35.058594 0.601563 50.035156 0.601563 65.789063 "/>
<path style=" stroke:none;fill-rule:nonzero;fill:rgb(5.499268%,25.498962%,42.399597%);fill-opacity:1;" d="M 179.402344 39.308594 L 179.402344 70.074219 L 109.710938 70.074219 L 109.710938 59.824219 L 109.714844 59.804688 L 109.710938 59.789063 L 109.710938 35.015625 L 99.164063 35.015625 C 96.761719 35.015625 94.8125 36.96875 94.8125 39.367188 L 94.8125 94.394531 C 94.8125 100.320313 92.523438 104.792969 89.164063 107.859375 C 87.203125 109.648438 86.699219 112.539063 87.929688 114.894531 L 92.988281 122.253906 C 103.304688 117.144531 109.710938 107.492188 109.710938 91.871094 L 109.710938 84.851563 L 190.003906 84.851563 C 192.378906 84.851563 194.300781 82.929688 194.300781 80.5625 L 194.300781 35.015625 L 183.695313 35.015625 C 181.324219 35.015625 179.402344 36.941406 179.402344 39.308594 "/>
<path style=" stroke:none;fill-rule:nonzero;fill:rgb(5.499268%,25.498962%,42.399597%);fill-opacity:1;" d="M 372.980469 0.109375 L 362.382813 0.109375 C 360.007813 0.109375 358.085938 2.03125 358.085938 4.402344 L 358.085938 70.074219 L 327.265625 70.074219 C 328.398438 42.796875 307.835938 15.773438 262.925781 18.757813 L 262.925781 29.058594 C 262.925781 30.96875 264.429688 32.5625 266.339844 32.625 C 297.945313 33.671875 312.058594 49.390625 312.058594 67.960938 L 312.140625 70.074219 L 230.226563 70.074219 L 230.226563 35.019531 L 219.679688 35.019531 C 217.273438 35.019531 215.328125 36.964844 215.328125 39.367188 L 215.328125 94.394531 C 215.328125 100.320313 213.039063 104.796875 209.679688 107.859375 C 207.71875 109.652344 207.214844 112.539063 208.445313 114.894531 L 213.503906 122.253906 C 223.816406 117.144531 230.226563 107.496094 230.226563 91.875 L 230.226563 84.851563 L 368.6875 84.851563 C 371.0625 84.851563 372.980469 82.929688 372.980469 80.5625 L 372.980469 56.765625 C 372.980469 56.75 372.984375 56.734375 372.984375 56.71875 C 372.984375 56.703125 372.980469 56.6875 372.980469 56.675781 "/>
<path style=" stroke:none;fill-rule:nonzero;fill:rgb(5.499268%,25.498962%,42.399597%);fill-opacity:1;" d="M 675.023438 56.699219 L 675.023438 35.019531 L 664.335938 35.019531 C 661.964844 35.019531 660.042969 36.945313 660.042969 39.3125 L 660.042969 70.210938 L 615.222656 70.210938 L 615.222656 35.019531 L 604.828125 35.019531 C 602.460938 35.019531 600.535156 36.945313 600.535156 39.3125 L 600.535156 70.210938 L 558.496094 70.210938 L 558.496094 0.0898438 L 549.105469 0.0898438 C 546.019531 0.0898438 543.519531 2.585938 543.519531 5.671875 L 543.519531 70.210938 L 459.488281 70.210938 L 459.488281 35.003906 L 450.175781 35.003906 C 447.097656 35.003906 444.597656 37.5 444.597656 40.585938 L 444.597656 56.546875 C 444.59375 56.601563 444.59375 56.664063 444.59375 56.722656 C 444.59375 56.78125 444.59375 56.84375 444.597656 56.902344 L 444.597656 78.925781 L 444.621094 78.925781 C 444.789063 82.257813 447.527344 84.898438 450.886719 84.894531 L 670.734375 84.785156 C 673.105469 84.78125 675.023438 82.855469 675.023438 80.488281 L 675.023438 56.699219 "/>
<path style=" stroke:none;fill-rule:nonzero;fill:rgb(100%,100%,100%);fill-opacity:1;" d="M 731.226563 14.050781 C 731.480469 9.46875 736.703125 0 746.335938 0.0429688 L 795.410156 0 C 798.648438 9.640625 814.441406 50.972656 819.605469 59.679688 C 825.140625 68.90625 838.347656 87.195313 839.085938 88.171875 L 840.152344 89.628906 C 841.542969 89.394531 844.113281 88.964844 845.164063 88.820313 L 845.640625 88.757813 L 846.371094 89.140625 C 846.6875 89.296875 846.894531 89.402344 847.394531 89.734375 L 848.074219 90.183594 L 848.074219 93.191406 L 852.824219 100.523438 L 873.074219 97.566406 C 874.515625 95.617188 879.109375 91.121094 882.714844 86.167969 L 887.011719 83.136719 L 886.070313 83.988281 C 886.164063 84.304688 886.242188 84.621094 886.328125 84.929688 C 886.515625 85.664063 886.699219 86.355469 886.972656 86.835938 C 887.933594 88.371094 890.472656 89.921875 902.980469 96.589844 L 903.390625 96.808594 C 907.230469 98.867188 912.496094 101.691406 915.347656 103.386719 L 916.445313 104.035156 L 915.992188 105.230469 C 914.414063 109.382813 910.460938 118.363281 909.140625 120.640625 C 909.011719 120.851563 896.378906 142.03125 894.78125 144.757813 L 894.65625 144.960938 L 894.480469 145.121094 C 894.066406 145.492188 891.796875 147.621094 889.484375 149.792969 C 887.171875 151.972656 884.808594 154.1875 884.179688 154.757813 L 883.921875 154.988281 L 883.585938 155.089844 C 882.050781 155.539063 870.703125 159.15625 868.703125 159.792969 L 861.976563 165.679688 C 861.835938 166.589844 861.308594 170.085938 861.308594 170.085938 L 860.671875 170.453125 C 858.738281 171.566406 850.195313 176.351563 843.328125 180.195313 C 838.648438 182.816406 834.222656 185.292969 833.921875 185.472656 L 833.722656 185.589844 L 833.503906 185.644531 C 832.769531 185.824219 817.140625 190.359375 806.714844 193.390625 L 787.4375 205.453125 L 778.863281 182.332031 L 779.078125 172.234375 L 762.980469 144.917969 L 749.664063 134.199219 L 742.945313 107.402344 L 733.941406 100.476563 L 731.226563 95.257813 "/>
<path style=" stroke:none;fill-rule:nonzero;fill:rgb(0%,23.529053%,44.313049%);fill-opacity:1;" d="M 779.085938 172.320313 L 762.984375 145 L 749.667969 134.273438 L 742.949219 107.476563 L 733.945313 100.542969 L 731.230469 95.324219 L 731.230469 189.722656 C 731.230469 198.410156 738.269531 205.457031 746.960938 205.457031 L 787.445313 205.457031 L 778.871094 182.417969 "/>
<g clip-path="url(#clip2)" clip-rule="nonzero">
<path style=" stroke:none;fill-rule:nonzero;fill:rgb(23.498535%,63.499451%,85.899353%);fill-opacity:1;" d="M 936.683594 15.738281 C 936.683594 7.050781 929.636719 0 920.945313 0 L 795.320313 0 C 798.5625 9.640625 814.339844 50.941406 819.507813 59.652344 C 825.042969 68.882813 838.253906 87.175781 838.988281 88.148438 L 840.054688 89.609375 C 841.445313 89.375 844.015625 88.941406 845.0625 88.800781 L 845.546875 88.738281 L 846.28125 89.117188 C 846.589844 89.273438 846.800781 89.378906 847.296875 89.710938 L 847.976563 90.160156 L 847.976563 93.167969 L 852.726563 100.503906 L 872.984375 97.542969 C 874.421875 95.597656 879.019531 91.097656 882.628906 86.144531 L 886.925781 83.113281 L 885.980469 83.964844 C 886.070313 84.28125 886.15625 84.597656 886.238281 84.910156 C 886.429688 85.640625 886.609375 86.335938 886.886719 86.8125 C 887.84375 88.347656 890.386719 89.898438 902.894531 96.570313 L 903.304688 96.789063 C 907.144531 98.847656 912.410156 101.667969 915.269531 103.367188 L 916.363281 104.015625 L 915.914063 105.210938 C 914.328125 109.367188 910.382813 118.351563 909.054688 120.621094 C 908.929688 120.835938 896.292969 142.019531 894.695313 144.746094 L 894.574219 144.949219 L 894.394531 145.109375 C 893.976563 145.480469 891.710938 147.609375 889.398438 149.785156 C 887.078125 151.960938 884.71875 154.175781 884.089844 154.746094 L 883.828125 154.984375 L 883.496094 155.078125 C 881.960938 155.527344 870.613281 159.148438 868.609375 159.785156 L 861.878906 165.671875 C 861.738281 166.582031 861.21875 170.082031 861.21875 170.082031 L 860.578125 170.445313 C 858.644531 171.5625 850.097656 176.34375 843.234375 180.1875 C 838.546875 182.8125 834.128906 185.289063 833.820313 185.46875 L 833.628906 185.585938 L 833.402344 185.644531 C 832.664063 185.820313 817.039063 190.359375 806.609375 193.390625 L 787.449219 205.453125 L 920.941406 205.421875 C 929.605469 205.386719 936.804688 198.304688 936.683594 189.171875 "/>
</g>
</g>
</svg>
