<?xml version="1.0" encoding="utf-8"?>
<!-- Generator: Adobe Illustrator 22.0.1, SVG Export Plug-In . SVG Version: 6.00 Build 0)  -->
<svg version="1.1" id="Layer_1" xmlns="http://www.w3.org/2000/svg" xmlns:xlink="http://www.w3.org/1999/xlink" x="0px" y="0px"
	 viewBox="0 0 1000 1000" style="enable-background:new 0 0 1000 1000;" xml:space="preserve">
<style type="text/css">
	.st0{fill:#400500;}
</style>
<g>
	<path class="st0" d="M782.6,447.2l46-12.4v116l-46,13.3V447.2L782.6,447.2z M900.2,579.3V419.7H712.5v159.6H900.2L900.2,579.3z"/>
	<path class="st0" d="M132,569.6c-2.2,1.6-5.6,2.5-8.2,2.5c-5.1,0-8.2-2.3-8.2-6.4c0-5.4,7.4-6.7,16.4-6.9V569.6L132,569.6z
		 M126,532.8c-5.9,0-14.2,1.4-20.3,2.7l3,9c5.4-1.1,10.6-2,13.9-2c6.7,0,9.3,1.9,9.4,8.3v0.2c-17.7,0.6-29,4.6-29,15.4
		c0,7.8,7.5,13.6,16.3,13.6c5.2,0,10.2-0.3,14.8-2.7c0.2,0.8,0.4,1.2,0.7,2l10.5-0.1c0-2.8,0.1-6.4,0.1-9.6v-20.8
		C145.5,534.7,135.3,532.8,126,532.8L126,532.8z"/>
	<path class="st0" d="M397.8,569.6c-2.2,1.6-5.6,2.5-8.3,2.5c-5,0-8.2-2.3-8.2-6.4c0-5.4,7.4-6.7,16.5-6.9V569.6L397.8,569.6z
		 M391.8,532.8c-5.9,0-14.2,1.4-20.3,2.7l2.9,9c5.4-1.1,10.6-2,13.9-2c6.7,0,9.3,1.9,9.4,8.3v0.2c-17.7,0.6-29,4.6-29,15.4
		c0,7.8,7.4,13.6,16.3,13.6c5.3,0,10.2-0.3,14.8-2.7c0.2,0.8,0.4,1.2,0.8,2l10.4-0.1c0-2.8,0.2-6.4,0.2-9.6v-20.8
		C411.3,534.7,401.1,532.8,391.8,532.8L391.8,532.8z"/>
	<path class="st0" d="M533.6,569.6c-2.2,1.6-5.6,2.5-8.2,2.5c-5.1,0-8.2-2.3-8.2-6.4c0-5.4,7.4-6.7,16.4-6.9V569.6L533.6,569.6z
		 M527.6,532.8c-5.9,0-14.2,1.4-20.3,2.7l3,9c5.5-1.1,10.6-2,13.9-2c6.8,0,9.3,1.9,9.4,8.3v0.2c-17.7,0.6-28.9,4.6-28.9,15.4
		c0,7.8,7.5,13.6,16.3,13.6c5.3,0,10.2-0.3,14.9-2.7c0.2,0.8,0.4,1.2,0.7,2l10.4-0.1c0-2.8,0.1-6.4,0.1-9.6v-20.8
		C547.1,534.7,536.9,532.8,527.6,532.8L527.6,532.8z"/>
	<path class="st0" d="M470,570.7c-2.4,0-4.8-0.1-7.4-0.6v-26.3c2.5-0.5,5.1-0.9,7.9-0.9c5.6,0,12,0.4,12,13.8
		C482.6,565.6,476.7,570.7,470,570.7L470,570.7z M471.2,532.8c-3.1,0-6,0.4-8.5,0.8l0.1-18.8h-13.7l-0.1,62.9
		c7.7,1.9,12.8,2.6,21.2,2.6c14.8,0,26.4-8.6,26.4-23.6C496.6,537.4,486,532.8,471.2,532.8L471.2,532.8z"/>
	<polygon class="st0" points="649.4,552.8 668.3,534.4 653.2,534.4 633.8,554.1 633.8,514.8 620.2,514.7 620.2,579.3 633.8,579.3 
		633.8,558.4 638.1,558.4 652.7,579.3 668.6,579.3 649.4,552.8 	"/>
	<polygon class="st0" points="191.2,579.3 204.9,579.3 204.9,534.4 191.2,534.4 191.2,579.3 	"/>
	<path class="st0" d="M198,515.7c-4,0-7.3,2.8-7.3,6.2c0,3.5,3.3,6.3,7.3,6.3c4,0,7.3-2.8,7.3-6.3C205.3,518.5,202,515.7,198,515.7
		L198,515.7z"/>
	<path class="st0" d="M243.3,532.8c-9,0-19.4,1.4-25.3,2.8v43.8h13.7v-35c3.3-0.5,6.7-0.7,9.9-0.7c9.2,0,10.7,4.9,10.7,12.9v22.8
		h13.7v-27.3C265.9,539.8,258.9,532.8,243.3,532.8L243.3,532.8z"/>
	<path class="st0" d="M585,532.8c-9,0-19.4,1.4-25.3,2.8v43.8h13.7v-35c3.2-0.5,6.7-0.7,9.9-0.7c9.2,0,10.6,4.9,10.6,12.9v22.8h13.7
		v-27.3C607.6,539.8,600.5,532.8,585,532.8L585,532.8z"/>
	<path class="st0" d="M337.1,532.8c-6.1,0-13.3,1.1-18.8,3.5c-2.7-1.8-7.9-3.5-14.9-3.5c-8.5,0-19,1.4-24.8,2.8v43.8h13.7v-35
		c3.1-0.5,6.5-0.7,9.6-0.7c9,0,10.4,4.9,10.4,12.9v22.8h13.7v-27.3c0-1.7-0.2-2.9-0.5-4.3l-0.1-0.5c-0.1-0.5-0.1-0.9-0.2-1.4
		c3.1-1.5,7.3-2.3,10.4-2.3c8.9,0,10.3,4.8,10.3,12.9v22.8h13.7v-27.3C359.5,539.7,352.4,532.8,337.1,532.8L337.1,532.8z"/>
	<path class="st0" d="M178.3,570.4c-3.4,0-6.1-1.4-6.1-6.4v-49.2h-13.7v49.6c0,13.5,8.6,15,15,15c2.4,0,4.9,0,8.7-0.1l-0.3-8.8
		C181.3,570.5,179.2,570.4,178.3,570.4L178.3,570.4z"/>
	<path class="st0" d="M212.3,466.5c0,5.5-1.5,7.9-5.5,7.9c-3.6,0-7.5-2.9-11.1-7.3c-0.6-0.7-1-1.4-1-1.4v-0.9
		c0-8.1,1.1-12.9,10-12.9c2.4,0,5,0.2,7.6,0.5V466.5L212.3,466.5z M245,466.9c0,5.5-3.6,7.1-8,7.1c-5.3,0-9.8-2.4-9.8-10.5V443
		c-5.9-1.4-16.1-2.8-24.9-2.8c-15.3,0-22.2,6.8-22.3,18.7v8c0,5.5-2.8,7.1-6.5,7.1h-4.8c-3.6,0-6.5-1.5-6.5-7.1v-47.1h-14.8v47.5
		c0,11,5,16,16,16h15.2c7.2,0,11.6-1.9,14.1-6.1c0,0,0.8,0.8,1.4,1.2c3.9,3.4,9,5.5,14.1,5.5c5.8,0,10.6-1.6,13.8-4.7
		c6.8,4,11,4,18.6,4c9.8,0,19.4-1.4,19.4-16V443H245V466.9L245,466.9z M120.9,469.3c0-3.1,4.1-4.7,8.7-4.7c1,0,1.8,0,2.6,0.1
		l3.4-9.8c-3.2-0.7-6-0.8-8.5-0.8c-9.5,0-21,4.2-21,13.1c0,2.7,0.9,4.7,2,6.7h-5l-3.3,9.3h34.1l3.2-9.3h-8.6
		C123.9,473.9,120.9,472.2,120.9,469.3L120.9,469.3z M252.4,419.7c-4.4,0-8,3.1-8,6.7c0,3.8,3.6,6.8,8,6.8c4.3,0,7.9-3,7.9-6.8
		C260.3,422.8,256.8,419.7,252.4,419.7L252.4,419.7z M457.4,466.9c0,4.5-2.3,7-7.3,7c-2.6,0-10.1-7.2-10.1-13.3
		c0-4.7,2.5-8.6,9.8-8.6c2.4,0,5.1,0.2,7.6,0.5V466.9L457.4,466.9z M472.3,442.9c-5.9-1.2-16.2-2.6-24.9-2.6
		c-15.4,0-22.4,6.9-22.4,19.1c0,4.8,3.1,10.2,7,14.5c-10.6,0-25.8,0.1-25.8,0.1c-5.5,0-9.6-2.5-9.6-7.1V452l-14.9,4v12.5
		c0,8.6,8.1,14.8,17.7,14.8h50.1c0.5,0,0.5,0,0.5,0c12.6-0.1,22.1-4.4,22.1-16V442.9L472.3,442.9z M283.8,492.4c0-1,1.2-1.5,2.6-1.5
		c0.3,0,0.6,0,0.8,0.1l1.1-2.9c-1-0.3-1.8-0.3-2.6-0.3c-2.9,0-6.3,1.1-6.3,3.9c0,0.8,0.2,1.4,0.6,2h-1.5l-0.9,2.8h10.2l1-2.8h-2.6
		C284.7,493.8,283.8,493.1,283.8,492.4L283.8,492.4z M303.7,466.9c0,5.5-2.9,7.1-6.5,7.1h-8.3v-54.2h-11.1v54.2H272l-3.2,9.3h33.5
		c11.2,0,16.3-4.7,16.3-16v-47.5h-14.8V466.9L303.7,466.9z M333.2,419.7v63.5H348v-63.5H333.2L333.2,419.7z M449.8,433.3
		c4.4,0,7.9-3,7.9-6.8c0-3.7-3.6-6.7-7.9-6.7c-4.4,0-7.9,3.1-7.9,6.7C441.9,430.2,445.4,433.3,449.8,433.3L449.8,433.3z
		 M651.8,466.5c0,5.5-1.5,7.9-5.5,7.9c-3.6,0-7.6-2.9-11.1-7.3c-0.6-0.7-1-1.4-1-1.4v-0.9c0-8.1,1.1-12.9,9.9-12.9
		c2.5,0,5.1,0.2,7.6,0.5V466.5L651.8,466.5z M537.7,473.9v-11c16.7-3.8,26.8-5.1,34.2-5.1c9,0,15.6,4.7,16.7,16H537.7L537.7,473.9z
		 M641.7,440.2c-15.3,0-22.2,6.8-22.3,18.7v8c0,5.5-2.9,7.1-6.5,7.1h-9.3c-2-17-9.8-27.8-29.2-27.8c-9.3,0-22.8,2.2-36.7,5.8v-5.8
		l-14.8,3.9v23.9h-17.9V443h-14.8v32.5c0,12-11,16-18,16l3.2,9.6c11.7,0,24.5-5.1,28.4-17.8H618c7.2,0,11.5-1.9,14.1-6.1
		c0,0,0.8,0.8,1.4,1.2c3.9,3.4,9,5.5,14.1,5.5c11.7,0,19.1-6.6,19.1-18.2V443C660.8,441.6,650.5,440.2,641.7,440.2L641.7,440.2z"/>
</g>
</svg>
