<?xml version="1.0" encoding="UTF-8"?><svg id="Layer_1" xmlns="http://www.w3.org/2000/svg" viewBox="0 0 841.89 841.89"><defs><style>.cls-1{fill:#06af9a;}.cls-2{fill:#2b266d;}.cls-3{fill:#757d92;}</style></defs><g><polygon class="cls-2" points="185.02 384.66 239.63 330.06 130.42 330.06 130.42 384.66 130.42 439.26 75.82 493.86 185.02 493.86 185.02 439.26 185.02 439.26 185.02 384.66"/><g><polygon class="cls-1" points="185.02 384.66 185.02 439.26 185.02 439.26 239.63 439.26 239.63 330.06 185.02 384.66"/><polygon class="cls-1" points="75.82 493.86 130.42 439.26 130.42 384.66 75.82 384.66 75.82 493.86"/></g></g><g><rect class="cls-3" x="432.86" y="403.39" width="11.15" height="11.16"/><rect class="cls-3" x="414.82" y="403.39" width="11.15" height="11.16"/><path class="cls-3" d="M392.54,375.76c0-6.53-1.27-12.43-4.62-16.02-3.98-4.22-9.63-5.98-16.8-5.98h-22.48v-5.5h-10.38v45.18h-16.61c-4.7,0-9.45-.72-12.16-3.03-2.47-2.07-3.35-5.5-3.35-10.2v-23.41h-12.16v24.76c0,6.45,1.44,12.83,5.34,16.49,4.86,4.62,11.04,6.53,20.52,6.53h28.79v-9.94h43.9v-18.9Zm-11.15,7.73h-32.74v-18.64h23.59c2.87,0,5.64,1.35,7,3.11,1.44,1.83,2.15,4.14,2.15,7.33v8.21Z"/><polygon class="cls-3" points="449.23 349.79 438.08 349.79 438.08 383.49 415.68 383.49 415.68 330.06 404.53 330.06 404.53 394.66 449.23 394.66 449.23 349.79"/><rect class="cls-3" x="517.71" y="330.06" width="11.15" height="64.6"/><rect class="cls-3" x="361.44" y="333.66" width="11.09" height="11.09"/><rect class="cls-3" x="722.22" y="330.06" width="11.15" height="11.29"/><rect class="cls-3" x="755.55" y="403.46" width="11.15" height="11.16"/><path class="cls-3" d="M586.25,394.66h180.48v-44.8h-11.15v33.7h-22.21v-33.7h-11.15v33.7h-59.49l-.1-53.51h-11.16l.1,53.51h-63.34c-4.7,0-9.16-.72-11.87-3.03-2.47-2.07-3.35-5.5-3.35-10.2v-13.77h-12.34v15.12c0,6.45,1.43,12.83,5.34,16.49,4.86,4.62,10.76,6.47,20.24,6.47Z"/><path class="cls-3" d="M624.03,361.33h-11.77v-4.46c0-1.67,.38-2.97,1.14-3.88,.7-.84,1.55-1.24,2.67-1.24h6.16v-6.47h-5.46c-3.51,0-6.26,1.11-8.17,3.3-1.86,2.13-2.8,5.22-2.8,9.2v10.03h18.24v-6.47Z"/><path class="cls-3" d="M472.29,394.66h33.44s0-64.6,0-64.6h-11.15v53.43h-22.21v-33.7h-11.16v43.42c0,5.5-1.51,7.81-5.97,7.81-1.39,0-2.69-.13-4.27-.48v10.97c1.37,.37,3.49,.67,5.47,.67,10.52,0,15.22-5.24,15.85-17.51Z"/><path class="cls-3" d="M344.63,446.1c0-10.55-7.18-20.68-24.99-20.68h-25.66v68.46h12.16v-27.01h12.07l16.71,27.01h13.67l-17.9-28.7c10.21-3.38,13.93-11.23,13.93-19.08Zm-27.69,10.21h-10.8v-19.58h10.8c10.04,0,14.85,2.79,14.85,9.62,0,7.93-5.91,9.96-14.85,9.96Z"/><path class="cls-3" d="M456.12,447.39c-6.18,0-12.2,1.58-15.76,3.33l-1.43,11.33c4.36-2.14,11.09-3.96,15.68-3.96,6.1,0,10.3,1.42,10.3,6.49v.63c-3.33-.47-6.34-.63-8.71-.63-12.12,0-20.75,5.15-20.75,15.13,0,10.93,9.98,14.81,21.15,14.81,6.58,0,13.78-1.27,19.41-3.48v-25.98c0-12.99-8.4-17.66-19.88-17.66Zm8.79,35.88c-2.38,.79-5.39,1.27-8.16,1.27-5.47,0-9.74-1.42-9.74-5.54s4.75-5.7,10.38-5.7c2.46,0,5.46,.4,7.52,.95v9.03Z"/><path class="cls-3" d="M517.78,448.03c-3.01-.39-5.7-.63-7.68-.63-15.21,0-25.19,10.38-25.19,23.68s9.58,23.44,26.06,23.44c6.42,0,12.44-.79,17.9-2.3v-62.89h-11.09v18.69Zm0,34.77c-2.46,.55-4.75,.87-6.89,.87-8.71,0-14.34-3.96-14.34-12.59s5.62-12.83,14.34-12.83c1.98,0,4.2,.24,6.89,.95v23.6Z"/><path class="cls-3" d="M414.82,481.69c-3.25,.95-5.94,1.19-8.32,1.19-6.18,0-8.79-2.46-8.79-10.61v-23.37h-11.17v26.54c0,14.65,8.08,18.3,19.4,18.3,2.85,0,5.86-.32,8.87-.95v.95c0,5.23-4.83,7.44-11.64,7.44-3.25,0-7.94-.79-11.93-1.98v10.61c3.55,.92,8.39,1.59,11.46,1.59,17.66,0,23.21-5.47,23.21-21.23v-41.27h-11.09v32.79Z"/><path class="cls-3" d="M642.84,447.39c-6.18,0-12.2,1.58-15.76,3.33l-1.43,11.33c4.36-2.14,11.09-3.96,15.68-3.96,6.1,0,10.3,1.42,10.3,6.49v.63c-3.33-.47-6.34-.63-8.71-.63-12.12,0-20.75,5.15-20.75,15.13,0,10.93,9.98,14.81,21.15,14.81,6.57,0,13.78-1.27,19.41-3.48v-25.98c0-12.99-8.4-17.66-19.88-17.66Zm8.79,35.88c-2.38,.79-5.39,1.27-8.16,1.27-5.47,0-9.74-1.43-9.74-5.54s4.75-5.7,10.38-5.7c2.46,0,5.46,.4,7.52,.95v9.03Z"/><path class="cls-3" d="M691.81,447.7c-4.83,0-13.15,1.03-20.04,2.3v43.88h11.09v-34.45c3.17-.56,6.1-.87,8.48-.87,6.57,0,9.98,2.45,9.98,10.61v24.71h11.09v-27.88c0-14.65-9.19-18.3-20.59-18.3Z"/><polygon class="cls-3" points="745.54 471.38 765.82 449.28 752.67 449.28 732.54 471.22 732.54 429.64 721.46 429.64 721.46 493.88 732.54 493.88 732.54 471.86 753.54 493.88 766.85 493.88 745.54 471.38"/><path class="cls-3" d="M600.03,457.07c6.5-2.87,9.54-8.69,9.54-14.43,0-9.62-7.68-17.22-24.73-17.22h-24.05v68.46h27.42c12.49,0,24.9-5.74,24.9-20.09,0-6.92-3.88-13.93-13.08-16.71Zm-27.08-20.34h11.13c9.28,0,12.91,3.29,12.91,8.02,0,5.57-3.97,8.27-12.91,8.27h-11.13v-16.29Zm13.58,45.83h-13.58v-18.15h13.24c8.95,0,14.35,1.94,14.35,9.12,0,6.25-4.47,9.03-14.01,9.03Z"/><rect class="cls-3" x="361.44" y="449.28" width="11.09" height="44.59"/><rect class="cls-3" x="361.44" y="429.29" width="11.09" height="11.09"/></g></svg>